<mxfile host="Electron" modified="2023-08-25T16:16:02.038Z" agent="Mozilla/5.0 (Macintosh; Intel Mac OS X 10_15_7) AppleWebKit/537.36 (KHTML, like Gecko) draw.io/21.6.8 Chrome/114.0.5735.289 Electron/25.5.0 Safari/537.36" etag="8pHj0fTforU_i_R5oNEO" version="21.6.8" type="device">
  <diagram name="Page-1" id="aaaa8250-4180-3840-79b5-4cada1eebb92">
    <mxGraphModel dx="1714" dy="1351" grid="1" gridSize="10" guides="1" tooltips="1" connect="1" arrows="1" fold="1" page="1" pageScale="1" pageWidth="850" pageHeight="1100" background="none" math="0" shadow="0">
      <root>
        <mxCell id="0" />
        <mxCell id="1" parent="0" />
        <mxCell id="9SVzKWm8xqf88QXqlPiM-4" value="AWS Cloud" style="points=[[0,0],[0.25,0],[0.5,0],[0.75,0],[1,0],[1,0.25],[1,0.5],[1,0.75],[1,1],[0.75,1],[0.5,1],[0.25,1],[0,1],[0,0.75],[0,0.5],[0,0.25]];outlineConnect=0;gradientColor=none;html=1;whiteSpace=wrap;fontSize=12;fontStyle=0;container=1;pointerEvents=0;collapsible=0;recursiveResize=0;shape=mxgraph.aws4.group;grIcon=mxgraph.aws4.group_aws_cloud_alt;strokeColor=#232F3E;fillColor=none;verticalAlign=top;align=left;spacingLeft=30;fontColor=#232F3E;dashed=0;" vertex="1" parent="1">
          <mxGeometry x="190" y="60" width="1220" height="1210" as="geometry" />
        </mxCell>
        <mxCell id="9SVzKWm8xqf88QXqlPiM-5" value="VPC" style="points=[[0,0],[0.25,0],[0.5,0],[0.75,0],[1,0],[1,0.25],[1,0.5],[1,0.75],[1,1],[0.75,1],[0.5,1],[0.25,1],[0,1],[0,0.75],[0,0.5],[0,0.25]];outlineConnect=0;gradientColor=none;html=1;whiteSpace=wrap;fontSize=12;fontStyle=0;container=1;pointerEvents=0;collapsible=0;recursiveResize=0;shape=mxgraph.aws4.group;grIcon=mxgraph.aws4.group_vpc;strokeColor=#248814;fillColor=none;verticalAlign=top;align=left;spacingLeft=30;fontColor=#AAB7B8;dashed=0;" vertex="1" parent="9SVzKWm8xqf88QXqlPiM-4">
          <mxGeometry x="220" y="250" width="950" height="780" as="geometry" />
        </mxCell>
        <mxCell id="9SVzKWm8xqf88QXqlPiM-9" value="Isolated Subnet A" style="points=[[0,0],[0.25,0],[0.5,0],[0.75,0],[1,0],[1,0.25],[1,0.5],[1,0.75],[1,1],[0.75,1],[0.5,1],[0.25,1],[0,1],[0,0.75],[0,0.5],[0,0.25]];outlineConnect=0;html=1;whiteSpace=wrap;fontSize=12;fontStyle=0;container=1;pointerEvents=0;collapsible=0;recursiveResize=0;shape=mxgraph.aws4.group;grIcon=mxgraph.aws4.group_security_group;grStroke=0;strokeColor=#b85450;fillColor=#f8cecc;verticalAlign=top;align=left;spacingLeft=30;dashed=0;" vertex="1" parent="9SVzKWm8xqf88QXqlPiM-5">
          <mxGeometry x="330" y="480" width="220" height="220" as="geometry" />
        </mxCell>
        <mxCell id="9SVzKWm8xqf88QXqlPiM-12" value="" style="sketch=0;outlineConnect=0;fontColor=#232F3E;gradientColor=none;fillColor=#4D27AA;strokeColor=none;dashed=0;verticalLabelPosition=bottom;verticalAlign=top;align=center;html=1;fontSize=12;fontStyle=0;aspect=fixed;pointerEvents=1;shape=mxgraph.aws4.elastic_network_interface;" vertex="1" parent="9SVzKWm8xqf88QXqlPiM-9">
          <mxGeometry x="71" y="71" width="78" height="78" as="geometry" />
        </mxCell>
        <mxCell id="9SVzKWm8xqf88QXqlPiM-10" value="Isolated Subnet B" style="points=[[0,0],[0.25,0],[0.5,0],[0.75,0],[1,0],[1,0.25],[1,0.5],[1,0.75],[1,1],[0.75,1],[0.5,1],[0.25,1],[0,1],[0,0.75],[0,0.5],[0,0.25]];outlineConnect=0;html=1;whiteSpace=wrap;fontSize=12;fontStyle=0;container=1;pointerEvents=0;collapsible=0;recursiveResize=0;shape=mxgraph.aws4.group;grIcon=mxgraph.aws4.group_security_group;grStroke=0;strokeColor=#b85450;fillColor=#f8cecc;verticalAlign=top;align=left;spacingLeft=30;dashed=0;" vertex="1" parent="9SVzKWm8xqf88QXqlPiM-5">
          <mxGeometry x="590" y="480" width="220" height="220" as="geometry" />
        </mxCell>
        <mxCell id="9SVzKWm8xqf88QXqlPiM-13" value="" style="sketch=0;outlineConnect=0;fontColor=#232F3E;gradientColor=none;fillColor=#4D27AA;strokeColor=none;dashed=0;verticalLabelPosition=bottom;verticalAlign=top;align=center;html=1;fontSize=12;fontStyle=0;aspect=fixed;pointerEvents=1;shape=mxgraph.aws4.elastic_network_interface;" vertex="1" parent="9SVzKWm8xqf88QXqlPiM-10">
          <mxGeometry x="71" y="71" width="78" height="78" as="geometry" />
        </mxCell>
        <mxCell id="9SVzKWm8xqf88QXqlPiM-26" value="Security group" style="fillColor=none;strokeColor=#DD3522;verticalAlign=top;fontStyle=0;fontColor=#DD3522;whiteSpace=wrap;html=1;" vertex="1" parent="9SVzKWm8xqf88QXqlPiM-5">
          <mxGeometry x="360" y="510" width="410" height="170" as="geometry" />
        </mxCell>
        <mxCell id="9SVzKWm8xqf88QXqlPiM-6" value="Public subnet" style="points=[[0,0],[0.25,0],[0.5,0],[0.75,0],[1,0],[1,0.25],[1,0.5],[1,0.75],[1,1],[0.75,1],[0.5,1],[0.25,1],[0,1],[0,0.75],[0,0.5],[0,0.25]];outlineConnect=0;gradientColor=none;html=1;whiteSpace=wrap;fontSize=12;fontStyle=0;container=1;pointerEvents=0;collapsible=0;recursiveResize=0;shape=mxgraph.aws4.group;grIcon=mxgraph.aws4.group_security_group;grStroke=0;strokeColor=#248814;fillColor=#E9F3E6;verticalAlign=top;align=left;spacingLeft=30;fontColor=#248814;dashed=0;" vertex="1" parent="9SVzKWm8xqf88QXqlPiM-5">
          <mxGeometry x="40" y="40" width="270" height="360" as="geometry" />
        </mxCell>
        <mxCell id="9SVzKWm8xqf88QXqlPiM-22" style="edgeStyle=orthogonalEdgeStyle;rounded=0;orthogonalLoop=1;jettySize=auto;html=1;" edge="1" parent="9SVzKWm8xqf88QXqlPiM-6" source="9SVzKWm8xqf88QXqlPiM-16" target="9SVzKWm8xqf88QXqlPiM-18">
          <mxGeometry relative="1" as="geometry" />
        </mxCell>
        <mxCell id="9SVzKWm8xqf88QXqlPiM-16" value="NAT Gateway" style="sketch=0;outlineConnect=0;fontColor=#232F3E;gradientColor=none;fillColor=#4D27AA;strokeColor=none;dashed=0;verticalLabelPosition=bottom;verticalAlign=top;align=center;html=1;fontSize=12;fontStyle=0;aspect=fixed;pointerEvents=1;shape=mxgraph.aws4.nat_gateway;" vertex="1" parent="9SVzKWm8xqf88QXqlPiM-6">
          <mxGeometry x="96" y="50" width="78" height="78" as="geometry" />
        </mxCell>
        <mxCell id="9SVzKWm8xqf88QXqlPiM-18" value="Route Table" style="sketch=0;outlineConnect=0;fontColor=#232F3E;gradientColor=none;fillColor=#4D27AA;strokeColor=none;dashed=0;verticalLabelPosition=bottom;verticalAlign=top;align=center;html=1;fontSize=12;fontStyle=0;aspect=fixed;pointerEvents=1;shape=mxgraph.aws4.route_table;" vertex="1" parent="9SVzKWm8xqf88QXqlPiM-6">
          <mxGeometry x="96" y="220" width="78" height="76" as="geometry" />
        </mxCell>
        <mxCell id="9SVzKWm8xqf88QXqlPiM-7" value="Private subnet" style="points=[[0,0],[0.25,0],[0.5,0],[0.75,0],[1,0],[1,0.25],[1,0.5],[1,0.75],[1,1],[0.75,1],[0.5,1],[0.25,1],[0,1],[0,0.75],[0,0.5],[0,0.25]];outlineConnect=0;gradientColor=none;html=1;whiteSpace=wrap;fontSize=12;fontStyle=0;container=1;pointerEvents=0;collapsible=0;recursiveResize=0;shape=mxgraph.aws4.group;grIcon=mxgraph.aws4.group_security_group;grStroke=0;strokeColor=#147EBA;fillColor=#E6F2F8;verticalAlign=top;align=left;spacingLeft=30;fontColor=#147EBA;dashed=0;" vertex="1" parent="9SVzKWm8xqf88QXqlPiM-5">
          <mxGeometry x="330" y="40" width="590" height="360" as="geometry" />
        </mxCell>
        <mxCell id="9SVzKWm8xqf88QXqlPiM-27" value="Security group" style="fillColor=none;strokeColor=#DD3522;verticalAlign=top;fontStyle=0;fontColor=#DD3522;whiteSpace=wrap;html=1;" vertex="1" parent="9SVzKWm8xqf88QXqlPiM-7">
          <mxGeometry x="240" y="127" width="210" height="193" as="geometry" />
        </mxCell>
        <mxCell id="9SVzKWm8xqf88QXqlPiM-20" value="Route Table" style="sketch=0;outlineConnect=0;fontColor=#232F3E;gradientColor=none;fillColor=#4D27AA;strokeColor=none;dashed=0;verticalLabelPosition=bottom;verticalAlign=top;align=center;html=1;fontSize=12;fontStyle=0;aspect=fixed;pointerEvents=1;shape=mxgraph.aws4.route_table;" vertex="1" parent="9SVzKWm8xqf88QXqlPiM-7">
          <mxGeometry x="100" y="51" width="78" height="76" as="geometry" />
        </mxCell>
        <mxCell id="9SVzKWm8xqf88QXqlPiM-30" style="edgeStyle=orthogonalEdgeStyle;rounded=0;orthogonalLoop=1;jettySize=auto;html=1;" edge="1" parent="9SVzKWm8xqf88QXqlPiM-7" source="9SVzKWm8xqf88QXqlPiM-27" target="9SVzKWm8xqf88QXqlPiM-20">
          <mxGeometry relative="1" as="geometry" />
        </mxCell>
        <mxCell id="9SVzKWm8xqf88QXqlPiM-23" value="Glue Shell Job" style="sketch=0;points=[[0,0,0],[0.25,0,0],[0.5,0,0],[0.75,0,0],[1,0,0],[0,1,0],[0.25,1,0],[0.5,1,0],[0.75,1,0],[1,1,0],[0,0.25,0],[0,0.5,0],[0,0.75,0],[1,0.25,0],[1,0.5,0],[1,0.75,0]];outlineConnect=0;fontColor=#232F3E;gradientColor=#945DF2;gradientDirection=north;fillColor=#5A30B5;strokeColor=#ffffff;dashed=0;verticalLabelPosition=bottom;verticalAlign=top;align=center;html=1;fontSize=12;fontStyle=0;aspect=fixed;shape=mxgraph.aws4.resourceIcon;resIcon=mxgraph.aws4.glue;" vertex="1" parent="9SVzKWm8xqf88QXqlPiM-7">
          <mxGeometry x="300" y="162" width="78" height="78" as="geometry" />
        </mxCell>
        <mxCell id="9SVzKWm8xqf88QXqlPiM-21" style="edgeStyle=orthogonalEdgeStyle;rounded=0;orthogonalLoop=1;jettySize=auto;html=1;" edge="1" parent="9SVzKWm8xqf88QXqlPiM-5" source="9SVzKWm8xqf88QXqlPiM-20" target="9SVzKWm8xqf88QXqlPiM-16">
          <mxGeometry relative="1" as="geometry" />
        </mxCell>
        <mxCell id="9SVzKWm8xqf88QXqlPiM-28" style="edgeStyle=orthogonalEdgeStyle;rounded=0;orthogonalLoop=1;jettySize=auto;html=1;entryX=0.5;entryY=0;entryDx=0;entryDy=0;" edge="1" parent="9SVzKWm8xqf88QXqlPiM-5" source="9SVzKWm8xqf88QXqlPiM-27" target="9SVzKWm8xqf88QXqlPiM-26">
          <mxGeometry relative="1" as="geometry" />
        </mxCell>
        <mxCell id="9SVzKWm8xqf88QXqlPiM-29" value="Port 5432" style="edgeLabel;html=1;align=center;verticalAlign=middle;resizable=0;points=[];" vertex="1" connectable="0" parent="9SVzKWm8xqf88QXqlPiM-28">
          <mxGeometry x="0.1675" y="-1" relative="1" as="geometry">
            <mxPoint x="1" as="offset" />
          </mxGeometry>
        </mxCell>
        <mxCell id="9SVzKWm8xqf88QXqlPiM-24" style="edgeStyle=orthogonalEdgeStyle;rounded=0;orthogonalLoop=1;jettySize=auto;html=1;" edge="1" parent="9SVzKWm8xqf88QXqlPiM-4" source="9SVzKWm8xqf88QXqlPiM-8" target="9SVzKWm8xqf88QXqlPiM-23">
          <mxGeometry relative="1" as="geometry" />
        </mxCell>
        <mxCell id="9SVzKWm8xqf88QXqlPiM-8" value="Scripts" style="sketch=0;outlineConnect=0;fontColor=#232F3E;gradientColor=none;fillColor=#3F8624;strokeColor=none;dashed=0;verticalLabelPosition=bottom;verticalAlign=top;align=center;html=1;fontSize=12;fontStyle=0;aspect=fixed;pointerEvents=1;shape=mxgraph.aws4.bucket;" vertex="1" parent="9SVzKWm8xqf88QXqlPiM-4">
          <mxGeometry x="853" y="80" width="75" height="78" as="geometry" />
        </mxCell>
        <mxCell id="9SVzKWm8xqf88QXqlPiM-14" style="edgeStyle=orthogonalEdgeStyle;rounded=0;orthogonalLoop=1;jettySize=auto;html=1;" edge="1" parent="9SVzKWm8xqf88QXqlPiM-4" source="9SVzKWm8xqf88QXqlPiM-11" target="9SVzKWm8xqf88QXqlPiM-12">
          <mxGeometry relative="1" as="geometry" />
        </mxCell>
        <mxCell id="9SVzKWm8xqf88QXqlPiM-15" style="edgeStyle=orthogonalEdgeStyle;rounded=0;orthogonalLoop=1;jettySize=auto;html=1;" edge="1" parent="9SVzKWm8xqf88QXqlPiM-4" source="9SVzKWm8xqf88QXqlPiM-11" target="9SVzKWm8xqf88QXqlPiM-13">
          <mxGeometry relative="1" as="geometry" />
        </mxCell>
        <mxCell id="9SVzKWm8xqf88QXqlPiM-11" value="" style="sketch=0;outlineConnect=0;fontColor=#232F3E;gradientColor=none;fillColor=#2E27AD;strokeColor=none;dashed=0;verticalLabelPosition=bottom;verticalAlign=top;align=center;html=1;fontSize=12;fontStyle=0;aspect=fixed;pointerEvents=1;shape=mxgraph.aws4.rds_instance;" vertex="1" parent="9SVzKWm8xqf88QXqlPiM-4">
          <mxGeometry x="750" y="1080" width="78" height="78" as="geometry" />
        </mxCell>
        <mxCell id="9SVzKWm8xqf88QXqlPiM-17" value="Internet Gateway" style="sketch=0;outlineConnect=0;fontColor=#232F3E;gradientColor=none;fillColor=#4D27AA;strokeColor=none;dashed=0;verticalLabelPosition=bottom;verticalAlign=top;align=center;html=1;fontSize=12;fontStyle=0;aspect=fixed;pointerEvents=1;shape=mxgraph.aws4.internet_gateway;" vertex="1" parent="9SVzKWm8xqf88QXqlPiM-4">
          <mxGeometry x="90" y="350" width="78" height="78" as="geometry" />
        </mxCell>
        <mxCell id="9SVzKWm8xqf88QXqlPiM-19" style="edgeStyle=orthogonalEdgeStyle;rounded=0;orthogonalLoop=1;jettySize=auto;html=1;" edge="1" parent="9SVzKWm8xqf88QXqlPiM-4" source="9SVzKWm8xqf88QXqlPiM-18" target="9SVzKWm8xqf88QXqlPiM-17">
          <mxGeometry relative="1" as="geometry" />
        </mxCell>
        <mxCell id="9SVzKWm8xqf88QXqlPiM-31" value="" style="endArrow=classic;startArrow=classic;html=1;rounded=0;edgeStyle=orthogonalEdgeStyle;dashed=1;" edge="1" parent="9SVzKWm8xqf88QXqlPiM-4" source="9SVzKWm8xqf88QXqlPiM-11" target="9SVzKWm8xqf88QXqlPiM-23">
          <mxGeometry width="50" height="50" relative="1" as="geometry">
            <mxPoint x="570" y="650" as="sourcePoint" />
            <mxPoint x="620" y="600" as="targetPoint" />
            <Array as="points">
              <mxPoint x="1100" y="1140" />
              <mxPoint x="1100" y="491" />
            </Array>
          </mxGeometry>
        </mxCell>
        <mxCell id="9SVzKWm8xqf88QXqlPiM-33" value="Glue Connection" style="edgeLabel;html=1;align=center;verticalAlign=middle;resizable=0;points=[];" vertex="1" connectable="0" parent="9SVzKWm8xqf88QXqlPiM-31">
          <mxGeometry x="0.0168" y="5" relative="1" as="geometry">
            <mxPoint as="offset" />
          </mxGeometry>
        </mxCell>
      </root>
    </mxGraphModel>
  </diagram>
</mxfile>
